<svg width="137" height="50" viewBox="0 0 137 50" fill="none" xmlns="http://www.w3.org/2000/svg">
<path d="M43.3649 26.2301C48.5636 21.7527 49.6937 19.2887 49.6937 14.3366C49.6937 6.41871 43.275 0 35.3571 0C30.0079 0 26.7719 1.56352 22.8791 7.27197C18.9863 12.9804 6.39334 28.9638 6.39334 28.9638C7.136 28.6732 9.20254 27.4139 10.2681 29.0607C11.3337 30.7074 3.90704 43.3972 0 49.5C17.6301 38.8444 26.1546 33.7104 27.6076 35.3571C29.0607 37.0039 27.4785 39.361 26.6389 40.4912C26.6389 40.4912 38.1663 30.7074 43.3649 26.2301Z" fill="url(#paint0_linear_3_102)"/>
<circle cx="35.3571" cy="14.3366" r="10.4618" fill="url(#paint1_linear_3_102)"/>
<path d="M62.7562 31.4744C61.7079 31.4744 60.8045 31.2742 60.046 30.8736C59.2917 30.4688 58.7101 29.8892 58.301 29.1349C57.8961 28.3764 57.6937 27.4688 57.6937 26.4119C57.6937 25.3977 57.8983 24.5114 58.3074 23.7528C58.7165 22.9943 59.2939 22.4041 60.0396 21.9823C60.7853 21.5604 61.6653 21.3494 62.6795 21.3494C63.421 21.3494 64.0922 21.4645 64.693 21.6946C65.2939 21.9247 65.8074 22.2592 66.2335 22.6982C66.6596 23.1328 66.9878 23.6612 67.2179 24.2834C67.448 24.9055 67.563 25.6065 67.563 26.3864V27.2046H58.7932V25.2614H64.3159C64.3116 24.9801 64.2392 24.733 64.0986 24.5199C63.9622 24.3026 63.7768 24.1342 63.5424 24.0149C63.3123 23.8913 63.0503 23.8296 62.7562 23.8296C62.4707 23.8296 62.2086 23.8913 61.97 24.0149C61.7314 24.1342 61.5396 24.3004 61.3947 24.5135C61.2541 24.7266 61.1795 24.9759 61.171 25.2614V27.358C61.171 27.6733 61.237 27.9546 61.3692 28.2017C61.5013 28.4489 61.6909 28.6428 61.938 28.7834C62.1852 28.924 62.4835 28.9943 62.8329 28.9943C63.0758 28.9943 63.2974 28.9602 63.4977 28.8921C63.7022 28.8239 63.877 28.7259 64.0219 28.598C64.1667 28.4659 64.2733 28.3082 64.3415 28.125H67.563C67.4522 28.8068 67.1902 29.3992 66.7768 29.902C66.3635 30.4006 65.8159 30.7884 65.1341 31.0653C64.4565 31.3381 63.6639 31.4744 62.7562 31.4744Z" fill="white"/>
<path d="M75.446 24.75V27.4091H69.3097V24.75H75.446Z" fill="white"/>
<path d="M89.7163 23.1136H86.1112C86.0856 22.8153 86.0174 22.5447 85.9066 22.3019C85.8001 22.059 85.6509 21.8501 85.4592 21.6754C85.2717 21.4965 85.0437 21.3601 84.7752 21.2663C84.5068 21.1683 84.2021 21.1193 83.8612 21.1193C83.2646 21.1193 82.7596 21.2642 82.3462 21.554C81.9372 21.8438 81.6261 22.2592 81.413 22.8004C81.2042 23.3416 81.0998 23.9915 81.0998 24.75C81.0998 25.5511 81.2063 26.2223 81.4194 26.7635C81.6367 27.3004 81.9499 27.7053 82.359 27.978C82.7681 28.2465 83.2603 28.3807 83.8356 28.3807C84.1637 28.3807 84.4578 28.3402 84.7177 28.2592C84.9776 28.174 85.2035 28.0526 85.3953 27.8949C85.587 27.7372 85.7426 27.5476 85.8619 27.326C85.9855 27.1001 86.0685 26.8466 86.1112 26.5653L89.7163 26.5909C89.6737 27.1449 89.5181 27.7095 89.2497 28.2848C88.9812 28.8558 88.5998 29.3842 88.1055 29.87C87.6154 30.3516 87.0082 30.7394 86.2837 31.0334C85.5593 31.3274 84.7177 31.4744 83.7589 31.4744C82.5572 31.4744 81.4791 31.2166 80.5245 30.701C79.5742 30.1854 78.8221 29.4269 78.2681 28.4254C77.7184 27.424 77.4435 26.1989 77.4435 24.75C77.4435 23.2926 77.7248 22.0653 78.2873 21.0682C78.8498 20.0668 79.6083 19.3104 80.5629 18.799C81.5174 18.2834 82.5828 18.0256 83.7589 18.0256C84.5856 18.0256 85.3462 18.1385 86.0408 18.3644C86.7355 18.5902 87.3448 18.9205 87.869 19.3551C88.3931 19.7855 88.815 20.3161 89.1346 20.9467C89.4542 21.5774 89.6481 22.2997 89.7163 23.1136Z" fill="white"/>
<path d="M96.1099 31.4744C95.0446 31.4744 94.1326 31.2635 93.3741 30.8416C92.6156 30.4155 92.0339 29.8232 91.6291 29.0646C91.2243 28.3019 91.0219 27.4176 91.0219 26.4119C91.0219 25.4063 91.2243 24.5242 91.6291 23.7656C92.0339 23.0028 92.6156 22.4105 93.3741 21.9886C94.1326 21.5625 95.0446 21.3494 96.1099 21.3494C97.1753 21.3494 98.0872 21.5625 98.8457 21.9886C99.6042 22.4105 100.186 23.0028 100.591 23.7656C100.996 24.5242 101.198 25.4063 101.198 26.4119C101.198 27.4176 100.996 28.3019 100.591 29.0646C100.186 29.8232 99.6042 30.4155 98.8457 30.8416C98.0872 31.2635 97.1753 31.4744 96.1099 31.4744ZM96.1355 28.8665C96.4338 28.8665 96.6916 28.7663 96.9089 28.5661C97.1263 28.3658 97.2946 28.0803 97.4139 27.7095C97.5332 27.3388 97.5929 26.8977 97.5929 26.3864C97.5929 25.8707 97.5332 25.4297 97.4139 25.0632C97.2946 24.6925 97.1263 24.407 96.9089 24.2067C96.6916 24.0064 96.4338 23.9063 96.1355 23.9063C95.8201 23.9063 95.5496 24.0064 95.3237 24.2067C95.0978 24.407 94.9253 24.6925 94.8059 25.0632C94.6866 25.4297 94.627 25.8707 94.627 26.3864C94.627 26.8977 94.6866 27.3388 94.8059 27.7095C94.9253 28.0803 95.0978 28.3658 95.3237 28.5661C95.5496 28.7663 95.8201 28.8665 96.1355 28.8665Z" fill="white"/>
<path d="M102.63 31.2955V21.4773H105.979V23.3438H106.082C106.286 22.7301 106.635 22.2443 107.13 21.8864C107.624 21.5284 108.212 21.3494 108.894 21.3494C109.584 21.3494 110.179 21.5327 110.677 21.8992C111.176 22.2614 111.476 22.7429 111.579 23.3438H111.681C111.847 22.7429 112.201 22.2614 112.742 21.8992C113.283 21.5327 113.918 21.3494 114.647 21.3494C115.589 21.3494 116.351 21.652 116.935 22.2571C117.523 22.8622 117.817 23.6676 117.817 24.6733V31.2955H114.289V25.5682C114.289 25.1378 114.18 24.8011 113.963 24.5582C113.746 24.3111 113.454 24.1875 113.087 24.1875C112.725 24.1875 112.437 24.3111 112.224 24.5582C112.015 24.8011 111.911 25.1378 111.911 25.5682V31.2955H108.536V25.5682C108.536 25.1378 108.427 24.8011 108.21 24.5582C107.993 24.3111 107.701 24.1875 107.334 24.1875C107.091 24.1875 106.883 24.2429 106.708 24.3537C106.533 24.4645 106.397 24.6243 106.299 24.8331C106.205 25.0376 106.158 25.2827 106.158 25.5682V31.2955H102.63Z" fill="white"/>
<path d="M124.262 31.4744C123.214 31.4744 122.31 31.2742 121.552 30.8736C120.798 30.4688 120.216 29.8892 119.807 29.1349C119.402 28.3764 119.2 27.4688 119.2 26.4119C119.2 25.3977 119.404 24.5114 119.813 23.7528C120.222 22.9943 120.8 22.4041 121.545 21.9823C122.291 21.5604 123.171 21.3494 124.185 21.3494C124.927 21.3494 125.598 21.4645 126.199 21.6946C126.8 21.9247 127.313 22.2592 127.739 22.6982C128.165 23.1328 128.494 23.6612 128.724 24.2834C128.954 24.9055 129.069 25.6065 129.069 26.3864V27.2046H120.299V25.2614H125.822C125.817 24.9801 125.745 24.733 125.604 24.5199C125.468 24.3026 125.283 24.1342 125.048 24.0149C124.818 23.8913 124.556 23.8296 124.262 23.8296C123.977 23.8296 123.714 23.8913 123.476 24.0149C123.237 24.1342 123.045 24.3004 122.901 24.5135C122.76 24.7266 122.685 24.9759 122.677 25.2614V27.358C122.677 27.6733 122.743 27.9546 122.875 28.2017C123.007 28.4489 123.197 28.6428 123.444 28.7834C123.691 28.924 123.989 28.9943 124.339 28.9943C124.582 28.9943 124.803 28.9602 125.004 28.8921C125.208 28.8239 125.383 28.7259 125.528 28.598C125.673 28.4659 125.779 28.3082 125.847 28.125H129.069C128.958 28.8068 128.696 29.3992 128.283 29.902C127.869 30.4006 127.322 30.7884 126.64 31.0653C125.962 31.3381 125.17 31.4744 124.262 31.4744Z" fill="white"/>
<path d="M136.364 21.4773V24.0341H129.895V21.4773H136.364ZM131.148 19.125H134.676V28.1378C134.676 28.2742 134.7 28.3892 134.747 28.483C134.794 28.5724 134.866 28.6406 134.964 28.6875C135.062 28.7301 135.188 28.7514 135.341 28.7514C135.448 28.7514 135.571 28.7386 135.712 28.7131C135.857 28.6875 135.963 28.6662 136.031 28.6492L136.543 31.1293C136.385 31.1761 136.159 31.2337 135.865 31.3019C135.575 31.37 135.23 31.4148 134.83 31.4361C134.02 31.4787 133.34 31.3956 132.791 31.1868C132.241 30.9737 131.828 30.6392 131.551 30.1832C131.274 29.7273 131.139 29.1563 131.148 28.4702V19.125Z" fill="white"/>
<defs>
<linearGradient id="paint0_linear_3_102" x1="47" y1="3.5" x2="-3.5" y2="54" gradientUnits="userSpaceOnUse">
<stop stop-color="#E9573F"/>
<stop offset="1" stop-color="#691C0F"/>
</linearGradient>
<linearGradient id="paint1_linear_3_102" x1="42" y1="6" x2="28" y2="22" gradientUnits="userSpaceOnUse">
<stop stop-color="#FFCE54"/>
<stop offset="1" stop-color="#FFA236" stop-opacity="0.81"/>
</linearGradient>
</defs>
</svg>
